<?xml version="1.0" encoding="UTF-8" standalone="no"?>
<!-- Generator: Adobe Illustrator 18.1.1, SVG Export Plug-In . SVG Version: 6.00 Build 0)  -->

<svg
   xmlns:dc="http://purl.org/dc/elements/1.1/"
   xmlns:cc="http://creativecommons.org/ns#"
   xmlns:rdf="http://www.w3.org/1999/02/22-rdf-syntax-ns#"
   xmlns:svg="http://www.w3.org/2000/svg"
   xmlns="http://www.w3.org/2000/svg"
   xmlns:sodipodi="http://sodipodi.sourceforge.net/DTD/sodipodi-0.dtd"
   xmlns:inkscape="http://www.inkscape.org/namespaces/inkscape"
   version="1.1"
   id="Capa_1"
   x="0px"
   y="0px"
   viewBox="0 0 2.5428404 2.7073753"
   xml:space="preserve"
   width="20.663"
   height="22.000002"
   sodipodi:docname="mining.svg"
   inkscape:version="0.92.3 (2405546, 2018-03-11)"><metadata
   id="metadata3801"><rdf:RDF><cc:Work
       rdf:about=""><dc:format>image/svg+xml</dc:format><dc:type
         rdf:resource="http://purl.org/dc/dcmitype/StillImage" /><dc:title></dc:title></cc:Work></rdf:RDF></metadata><defs
   id="defs3799" /><sodipodi:namedview
   pagecolor="#ffffff"
   bordercolor="#666666"
   borderopacity="1"
   objecttolerance="10"
   gridtolerance="10"
   guidetolerance="10"
   inkscape:pageopacity="0"
   inkscape:pageshadow="2"
   inkscape:window-width="1920"
   inkscape:window-height="1017"
   id="namedview3797"
   showgrid="false"
   fit-margin-top="0"
   fit-margin-left="0"
   fit-margin-right="0"
   fit-margin-bottom="0"
   inkscape:zoom="1.65625"
   inkscape:cx="-92.613558"
   inkscape:cy="11.005105"
   inkscape:window-x="-8"
   inkscape:window-y="-8"
   inkscape:window-maximized="1"
   inkscape:current-layer="Capa_1" />
<g
   id="g3764"
   style="fill:#ffffff"
   transform="matrix(0.04296792,0,0,0.04296845,-0.08224995,-1.7398221e-5)">
	<g
   id="g3762"
   style="fill:#ffffff">
		<path
   d="m 28.046,6.794 c 0,2.904 2.354,5.259 5.26,5.259 2.627,0 4.798,-1.929 5.188,-4.445 l 3.505,0.98 0.286,-1.013 -2.716,-0.76 C 39.885,3.877 38.051,1.053 35.113,0.23 31.834,-0.687 28.437,1.225 27.52,4.501 l 0.931,0.261 c -0.258,0.624 -0.405,1.311 -0.405,2.032 z"
   id="path3758"
   style="fill:#ffffff"
   inkscape:connector-curvature="0" />
		<path
   d="m 59.711,26.767 c -0.195,3.192 -0.636,6.181 -1.455,9.042 -0.642,2.271 -1.505,4.454 -2.521,6.57 L 44.282,36.785 C 44.419,35.935 44.236,35.019 43.565,34.19 39.49,29.18 38.795,23.625 36.281,17.719 35.656,16.25 35.127,14.558 27.955,12.655 19.537,10.42 12.331,12.565 8.501,20.852 c -1.66,3.594 3.519,6.74 5.336,3.402 l 6.774,3.309 c -0.897,2.315 -1.917,4.587 -3.081,6.817 -4.183,6.852 -9.534,13 -14.772,19.057 -2.822,3.477 2.103,7.084 4.965,3.758 4.283,-4.953 8.151,-9.275 11.967,-14.647 0.396,0.249 9.752,5.327 9.752,5.327 -1.578,3.744 -3.145,6.976 -5.326,10.423 -2.298,3.633 2.942,6.74 5.413,3.053 2.786,-4.157 4.436,-8.295 6.455,-12.823 0.55,-1.237 0.651,-2.835 -0.496,-3.825 -0.321,-0.277 -7.53,-5.575 -7.257,-5.101 1.137,-2.223 2.179,-4.489 3.111,-6.799 l 5.67,2.771 c 0.613,1.071 1.298,2.104 2.091,3.082 1.323,1.629 3.146,1.219 4.249,0.016 l 11.431,5.584 c -1.357,2.54 -2.927,4.989 -4.64,7.385 -1.77,2.479 -3.666,4.897 -5.67,7.375 2.917,-1.348 5.474,-3.342 7.763,-5.594 2.234,-2.231 4.185,-4.794 5.7,-7.627 l 1.562,0.76 0.925,-1.887 -1.56,-0.762 c 1.068,-2.399 1.815,-4.961 2.101,-7.583 0.355,-3.26 -10e-4,-6.603 -1.253,-9.556 z M 21.348,25.58 14.777,22.37 c 0.944,-1.74 2.16,-3.339 4.073,-4.072 1.504,-0.577 3.124,-0.537 4.709,-0.251 -0.614,2.561 -1.343,5.072 -2.211,7.533 z m 10.763,5.258 c 0.443,-1.185 0.855,-2.376 1.245,-3.577 0.676,1.751 1.341,3.505 2.102,5.211 z"
   id="path3760"
   style="fill:#ffffff"
   inkscape:connector-curvature="0" />
	</g>
</g>
<g
   id="g3766"
   transform="translate(-30.232784,-30.15094)">
</g>
<g
   id="g3768"
   transform="translate(-30.232784,-30.15094)">
</g>
<g
   id="g3770"
   transform="translate(-30.232784,-30.15094)">
</g>
<g
   id="g3772"
   transform="translate(-30.232784,-30.15094)">
</g>
<g
   id="g3774"
   transform="translate(-30.232784,-30.15094)">
</g>
<g
   id="g3776"
   transform="translate(-30.232784,-30.15094)">
</g>
<g
   id="g3778"
   transform="translate(-30.232784,-30.15094)">
</g>
<g
   id="g3780"
   transform="translate(-30.232784,-30.15094)">
</g>
<g
   id="g3782"
   transform="translate(-30.232784,-30.15094)">
</g>
<g
   id="g3784"
   transform="translate(-30.232784,-30.15094)">
</g>
<g
   id="g3786"
   transform="translate(-30.232784,-30.15094)">
</g>
<g
   id="g3788"
   transform="translate(-30.232784,-30.15094)">
</g>
<g
   id="g3790"
   transform="translate(-30.232784,-30.15094)">
</g>
<g
   id="g3792"
   transform="translate(-30.232784,-30.15094)">
</g>
<g
   id="g3794"
   transform="translate(-30.232784,-30.15094)">
</g>
</svg>